<?xml version="1.0" standalone="no"?>
<!DOCTYPE svg PUBLIC "-//W3C//DTD SVG 20010904//EN"
 "http://www.w3.org/TR/2001/REC-SVG-20010904/DTD/svg10.dtd">
<svg version="1.0" xmlns="http://www.w3.org/2000/svg"
 width="312.000000pt" height="162.000000pt" viewBox="0 0 312.000000 162.000000"
 preserveAspectRatio="xMidYMid meet">

<g transform="translate(0.000000,162.000000) scale(0.100000,-0.100000)"
fill="#000000" stroke="none">
<path d="M0 810 l0 -810 693 1 c380 0 685 3 677 6 -8 3 -74 34 -146 69 -113
55 -140 73 -188 125 -69 74 -88 110 -114 219 -12 47 -24 95 -28 108 -3 12 -2
22 4 22 6 0 7 13 1 37 -5 25 -4 40 3 44 6 4 8 15 4 25 -6 17 -6 17 14 -1 20
-18 20 -18 20 28 0 59 17 108 30 87 7 -11 10 -6 10 18 0 17 5 32 10 32 6 0 10
7 10 15 0 15 26 29 85 46 25 7 24 8 -12 4 -23 -3 -48 -7 -56 -11 -34 -13 -24
212 12 264 10 15 29 44 42 65 32 50 50 44 64 -23 22 -100 103 -290 124 -290 4
0 -3 40 -15 88 -25 99 -40 237 -30 278 6 24 10 26 42 21 42 -7 105 -51 131
-92 69 -106 95 -149 131 -224 23 -46 42 -90 42 -97 0 -8 5 -14 10 -14 6 0 10
6 10 13 0 18 44 39 100 47 44 7 44 7 9 9 -20 0 -52 -6 -72 -14 l-35 -14 -4
122 c-2 67 -3 124 -1 126 5 8 42 -45 43 -61 0 -9 21 -39 46 -65 40 -41 46 -44
41 -23 -9 40 -20 210 -14 210 20 0 147 -228 147 -264 0 -25 -2 -26 -42 -21
-40 4 -40 4 -9 -4 46 -12 62 -31 68 -81 l6 -43 16 29 15 29 6 -35 c3 -23 8
-31 13 -22 17 26 29 11 27 -35 -2 -27 -2 -64 0 -83 l2 -35 11 28 c10 25 26 37
28 20 0 -5 3 -21 5 -36 3 -18 -5 -50 -21 -85 -15 -31 -39 -104 -54 -162 -15
-58 -36 -120 -45 -139 -45 -86 -207 -197 -361 -247 -34 -11 12 -13 325 -13
309 -1 361 1 345 13 -11 7 -32 16 -47 20 -15 3 -33 12 -40 20 -8 7 -29 16 -48
19 -121 18 -162 31 -173 55 -10 21 -8 27 16 48 39 34 109 33 180 -2 47 -23 61
-26 111 -20 32 4 55 10 53 13 -3 2 13 43 35 89 37 76 41 92 44 177 2 79 -3
140 -21 244 -2 12 3 27 10 33 18 15 8 40 -15 40 -11 0 -22 12 -29 31 -16 45
-14 79 4 79 8 0 12 6 9 14 -3 8 2 16 13 19 11 3 7 5 -12 6 -39 2 -64 37 -72
101 -7 57 10 100 38 100 25 0 58 -45 64 -89 15 -102 51 -246 86 -340 38 -104
38 -120 3 -121 -6 0 -17 -7 -24 -15 -16 -20 -1 -19 28 0 12 9 43 17 69 19 l48
2 2 78 c2 92 6 106 32 106 14 0 19 5 15 15 -4 8 -16 15 -28 15 -17 0 -24 9
-34 45 -15 57 -16 139 -1 130 5 -4 22 -4 37 0 20 5 23 8 11 16 -7 5 -24 9 -36
9 -27 0 -37 29 -37 111 0 37 6 65 17 83 21 31 27 32 57 6 22 -19 24 -32 36
-208 14 -196 37 -356 57 -383 16 -22 56 -42 71 -36 7 3 19 27 25 54 15 58 26
73 56 73 30 0 40 26 13 33 -20 6 -21 11 -14 76 8 96 11 101 49 95 25 -4 28 -3
17 5 -8 6 -22 11 -31 11 -30 0 5 146 44 178 12 10 21 11 36 2 32 -16 35 -53
13 -127 -50 -169 -97 -398 -87 -425 3 -7 17 -18 30 -25 24 -10 28 -8 63 35 46
57 83 95 150 150 l52 43 0 450 0 449 -455 0 -455 0 11 -27 c13 -36 22 -143 11
-143 -18 0 -107 42 -127 60 -11 10 -51 38 -88 64 l-68 46 -127 -1 -127 -1 85
-18 c154 -33 439 -150 526 -216 17 -13 59 -37 95 -53 62 -28 79 -41 198 -144
71 -61 128 -137 142 -190 13 -45 13 -167 1 -179 -4 -4 -6 11 -4 33 8 79 -25
158 -112 268 -45 56 -150 141 -174 141 -5 0 -21 11 -36 25 -15 14 -32 25 -37
25 -6 0 -27 13 -47 29 -47 36 -216 125 -302 158 -220 83 -272 94 -515 100
-202 5 -217 4 -410 -27 -222 -36 -331 -66 -491 -136 -126 -54 -212 -100 -271
-146 -23 -18 -74 -58 -115 -89 -40 -31 -81 -65 -90 -75 -26 -30 -70 -123 -83
-178 l-13 -51 -1 42 c-1 23 8 61 18 85 23 53 112 157 168 197 22 16 44 34 47
40 13 21 153 107 258 158 188 92 417 157 648 183 52 6 96 13 99 15 2 3 -72 5
-165 5 l-169 0 -78 -44 c-71 -41 -128 -66 -148 -66 -5 0 -9 25 -9 55 l0 55
-355 0 -355 0 0 -810z m2066 -211 c27 -30 24 -150 -5 -207 -33 -65 -146 -151
-168 -128 -11 11 10 44 31 50 12 3 39 22 59 41 40 39 49 83 22 105 -26 21 -16
30 25 24 44 -7 47 -2 34 65 -5 24 -12 31 -31 31 -21 0 -22 3 -13 20 14 25 22
25 46 -1z m-1252 -4 c3 -10 -1 -15 -12 -15 -26 0 -42 -20 -42 -52 0 -21 6 -31
25 -38 20 -8 25 -16 25 -45 0 -20 5 -45 10 -56 12 -22 60 -49 88 -49 18 0 48
-47 37 -58 -8 -8 -72 24 -115 59 -83 67 -119 192 -69 245 26 27 44 31 53 9z
m1148 -143 c1 -17 -9 -42 -21 -59 l-23 -28 7 40 c16 84 35 109 37 47z m-1052
-26 c0 -5 -7 -3 -15 4 -8 7 -12 17 -9 22 7 10 24 -9 24 -26z"/>
<path d="M816 1605 c4 -8 8 -15 10 -15 2 0 4 7 4 15 0 8 -4 15 -10 15 -5 0 -7
-7 -4 -15z"/>
<path d="M1308 1613 c6 -2 18 -2 25 0 6 3 1 5 -13 5 -14 0 -19 -2 -12 -5z"/>
<path d="M776 1584 c-3 -9 -2 -23 4 -32 7 -14 9 -10 10 16 0 35 -5 41 -14 16z"/>
<path d="M1160 880 c19 -4 49 -10 65 -14 27 -6 27 -5 -5 8 -19 8 -48 14 -65
14 -29 0 -29 -1 5 -8z"/>
<path d="M1378 708 c2 -32 -2 -80 -12 -116 -17 -67 -14 -87 16 -103 18 -10 18
-9 8 11 -6 11 -8 30 -5 40 10 31 8 187 -3 205 -6 11 -7 -1 -4 -37z"/>
<path d="M1634 731 c-18 -11 -36 -25 -40 -33 -7 -12 14 0 71 39 30 20 4 15
-31 -6z"/>
<path d="M1175 728 c27 -10 76 -38 65 -38 -3 0 -27 7 -54 15 -91 28 -175 11
-198 -40 -16 -34 -3 -43 25 -16 45 42 132 48 199 15 36 -19 38 -18 36 13 -3
29 -49 63 -83 62 -15 0 -12 -3 10 -11z"/>
<path d="M1658 710 c-36 -11 -77 -42 -78 -58 0 -8 3 -12 8 -10 85 44 108 50
160 45 30 -3 60 -11 65 -16 6 -6 17 -11 24 -11 20 0 -5 36 -34 49 -27 13 -105
13 -145 1z"/>
<path d="M1825 604 c-28 -15 -68 -21 -155 -24 -34 -2 -33 -2 15 -15 34 -10 51
-11 56 -3 4 6 27 11 52 12 25 0 43 4 41 8 -3 4 4 11 13 17 30 16 9 21 -22 5z"/>
<path d="M3054 527 c-33 -34 -69 -75 -79 -90 -21 -33 -41 -139 -54 -289 -5
-59 -12 -117 -16 -128 -6 -19 -2 -20 104 -20 l111 0 0 295 c0 162 -1 295 -2
295 -2 0 -30 -28 -64 -63z"/>
<path d="M1840 500 c-12 -8 -11 -10 7 -10 16 0 23 -7 26 -27 3 -23 4 -21 6 10
1 38 -10 46 -39 27z"/>
<path d="M1765 480 l-20 -9 20 0 c11 0 29 4 40 9 l20 9 -20 0 c-11 0 -29 -4
-40 -9z"/>
<path d="M1670 460 c-34 -7 -34 -7 -5 -8 17 0 41 4 55 8 33 11 0 11 -50 0z"/>
<path d="M961 438 c1 -19 2 -20 6 -5 4 15 12 18 39 15 19 -2 34 0 34 4 0 4
-18 8 -40 8 -35 0 -40 -3 -39 -22z"/>
<path d="M1093 443 c15 -2 39 -2 55 0 15 2 2 4 -28 4 -30 0 -43 -2 -27 -4z"/>
<path d="M1563 443 c15 -2 37 -2 50 0 12 2 0 4 -28 4 -27 0 -38 -2 -22 -4z"/>
<path d="M1278 433 c45 -2 119 -2 165 0 45 1 8 3 -83 3 -91 0 -128 -2 -82 -3z"/>
<path d="M1871 400 c-1 -14 -8 -38 -16 -54 -17 -33 -18 -36 -6 -36 11 0 35 85
28 102 -3 7 -6 2 -6 -12z"/>
<path d="M1801 377 c-1 -10 -12 -29 -26 -42 l-24 -25 25 0 c14 0 22 4 19 10
-3 5 -1 19 5 30 6 12 9 26 6 33 -2 7 -5 4 -5 -6z"/>
<path d="M970 368 c0 -20 19 -72 25 -67 2 3 -2 23 -10 44 -8 22 -14 32 -15 23z"/>
<path d="M2366 371 c-4 -5 -3 -16 0 -25 3 -9 1 -22 -5 -30 -9 -10 -3 -19 26
-41 47 -35 123 -116 123 -132 0 -6 5 -15 12 -19 8 -5 9 -1 5 12 -5 13 0 11 18
-9 14 -15 25 -36 26 -45 0 -12 3 -11 9 6 10 23 0 94 -19 145 -16 42 -14 47 18
47 45 0 92 -20 149 -63 52 -40 81 -44 48 -8 -22 24 -13 41 21 41 l26 0 -24 18
c-23 16 -107 58 -192 95 -41 19 -231 24 -241 8z"/>
<path d="M1043 333 c3 -15 -1 -23 -12 -26 -9 -3 4 -5 29 -5 35 -1 40 1 23 8
-12 5 -26 17 -33 27 -10 16 -11 16 -7 -4z"/>
<path d="M1110 306 c0 -2 9 -6 20 -9 11 -3 20 -1 20 4 0 5 -9 9 -20 9 -11 0
-20 -2 -20 -4z"/>
<path d="M1643 303 c9 -2 25 -2 35 0 9 3 1 5 -18 5 -19 0 -27 -2 -17 -5z"/>
<path d="M1453 293 c9 -2 23 -2 30 0 6 3 -1 5 -18 5 -16 0 -22 -2 -12 -5z"/>
<path d="M1000 283 c0 -6 8 -17 18 -24 16 -13 16 -13 2 6 -8 11 -16 22 -17 24
-2 2 -3 0 -3 -6z"/>
<path d="M1059 208 c33 -36 136 -98 161 -98 7 0 -14 13 -46 30 -33 16 -80 46
-104 67 l-45 37 34 -36z"/>
<path d="M1749 193 c-13 -16 -12 -17 4 -4 16 13 21 21 13 21 -2 0 -10 -8 -17
-17z"/>
<path d="M2091 114 c0 -11 3 -14 6 -6 3 7 2 16 -1 19 -3 4 -6 -2 -5 -13z"/>
<path d="M1248 103 c7 -3 16 -2 19 1 4 3 -2 6 -13 5 -11 0 -14 -3 -6 -6z"/>
<path d="M1305 90 c30 -8 132 -13 124 -6 -2 2 -38 6 -79 9 -46 3 -63 2 -45 -3z"/>
<path d="M1490 92 c0 -5 14 -7 30 -4 17 2 30 6 30 8 0 2 -13 4 -30 4 -16 0
-30 -4 -30 -8z"/>
</g>
</svg>
